<mxfile host="app.diagrams.net" modified="2022-06-07T02:55:30.498Z" agent="5.0 (Macintosh; Intel Mac OS X 10_15_7) AppleWebKit/537.36 (KHTML, like Gecko) Chrome/101.0.4951.64 Safari/537.36 Edg/101.0.1210.47" etag="WrzLl7wodPlBVrB6vBCM" version="18.1.1" type="github">
  <diagram id="tJYI-PwVf6a4DiHToEBC" name="Page-1">
    <mxGraphModel dx="1282" dy="747" grid="1" gridSize="10" guides="1" tooltips="1" connect="1" arrows="1" fold="1" page="1" pageScale="1" pageWidth="4681" pageHeight="3300" math="0" shadow="0">
      <root>
        <mxCell id="0" />
        <mxCell id="1" parent="0" />
        <mxCell id="ZSM1N3qtKj9A48DfGGsL-1" value="" style="rounded=0;whiteSpace=wrap;html=1;fontFamily=Courier New;fontSize=7;fillColor=#fff2cc;strokeColor=#d6b656;dashed=1;opacity=50;" vertex="1" parent="1">
          <mxGeometry x="320" y="220" width="1170" height="490" as="geometry" />
        </mxCell>
        <mxCell id="ZSM1N3qtKj9A48DfGGsL-2" value="" style="rounded=0;whiteSpace=wrap;html=1;fontFamily=Courier New;fontSize=7;fillColor=#f8cecc;strokeColor=#b85450;dashed=1;opacity=50;" vertex="1" parent="1">
          <mxGeometry x="330" y="230" width="450" height="440" as="geometry" />
        </mxCell>
        <mxCell id="ZSM1N3qtKj9A48DfGGsL-3" value="clean_suite" style="rounded=0;whiteSpace=wrap;html=1;dashed=1;verticalAlign=bottom;" vertex="1" parent="1">
          <mxGeometry x="960" y="450" width="520" height="50" as="geometry" />
        </mxCell>
        <mxCell id="ZSM1N3qtKj9A48DfGGsL-4" value="" style="rounded=0;whiteSpace=wrap;html=1;fontFamily=Courier New;fontSize=7;fillColor=#dae8fc;strokeColor=#6c8ebf;dashed=1;opacity=50;" vertex="1" parent="1">
          <mxGeometry x="360" y="240" width="250" height="90" as="geometry" />
        </mxCell>
        <mxCell id="ZSM1N3qtKj9A48DfGGsL-5" value="res1" style="rounded=0;whiteSpace=wrap;html=1;" vertex="1" parent="1">
          <mxGeometry x="360" y="340" width="80" height="20" as="geometry" />
        </mxCell>
        <mxCell id="ZSM1N3qtKj9A48DfGGsL-6" value="res2" style="rounded=0;whiteSpace=wrap;html=1;" vertex="1" parent="1">
          <mxGeometry x="360" y="360" width="80" height="20" as="geometry" />
        </mxCell>
        <mxCell id="ZSM1N3qtKj9A48DfGGsL-7" value="res_stack" style="text;html=1;strokeColor=none;fillColor=none;align=center;verticalAlign=middle;whiteSpace=wrap;rounded=0;fontSize=12;" vertex="1" parent="1">
          <mxGeometry x="370" y="310" width="60" height="30" as="geometry" />
        </mxCell>
        <mxCell id="ZSM1N3qtKj9A48DfGGsL-8" value="" style="whiteSpace=wrap;html=1;aspect=fixed;" vertex="1" parent="1">
          <mxGeometry x="660" y="340" width="80" height="80" as="geometry" />
        </mxCell>
        <mxCell id="ZSM1N3qtKj9A48DfGGsL-9" value="TestCase1" style="text;html=1;strokeColor=none;fillColor=none;align=center;verticalAlign=middle;whiteSpace=wrap;rounded=0;" vertex="1" parent="1">
          <mxGeometry x="670" y="310" width="60" height="30" as="geometry" />
        </mxCell>
        <mxCell id="ZSM1N3qtKj9A48DfGGsL-10" value="add-res1" style="rounded=0;whiteSpace=wrap;html=1;" vertex="1" parent="1">
          <mxGeometry x="670" y="360" width="60" height="20" as="geometry" />
        </mxCell>
        <mxCell id="ZSM1N3qtKj9A48DfGGsL-11" value="add-res2" style="rounded=0;whiteSpace=wrap;html=1;" vertex="1" parent="1">
          <mxGeometry x="670" y="390" width="60" height="20" as="geometry" />
        </mxCell>
        <mxCell id="ZSM1N3qtKj9A48DfGGsL-12" value="" style="whiteSpace=wrap;html=1;aspect=fixed;" vertex="1" parent="1">
          <mxGeometry x="660" y="460" width="80" height="80" as="geometry" />
        </mxCell>
        <mxCell id="ZSM1N3qtKj9A48DfGGsL-13" value="TestCase2" style="text;html=1;strokeColor=none;fillColor=none;align=center;verticalAlign=middle;whiteSpace=wrap;rounded=0;" vertex="1" parent="1">
          <mxGeometry x="670" y="430" width="60" height="30" as="geometry" />
        </mxCell>
        <mxCell id="ZSM1N3qtKj9A48DfGGsL-14" value="add-res3" style="rounded=0;whiteSpace=wrap;html=1;" vertex="1" parent="1">
          <mxGeometry x="670" y="480" width="60" height="20" as="geometry" />
        </mxCell>
        <mxCell id="ZSM1N3qtKj9A48DfGGsL-15" value="" style="whiteSpace=wrap;html=1;aspect=fixed;" vertex="1" parent="1">
          <mxGeometry x="660" y="581" width="80" height="80" as="geometry" />
        </mxCell>
        <mxCell id="ZSM1N3qtKj9A48DfGGsL-16" value="TestCase3" style="text;html=1;strokeColor=none;fillColor=none;align=center;verticalAlign=middle;whiteSpace=wrap;rounded=0;" vertex="1" parent="1">
          <mxGeometry x="670" y="551" width="60" height="30" as="geometry" />
        </mxCell>
        <mxCell id="ZSM1N3qtKj9A48DfGGsL-17" value="add-res4" style="rounded=0;whiteSpace=wrap;html=1;" vertex="1" parent="1">
          <mxGeometry x="670" y="601" width="60" height="20" as="geometry" />
        </mxCell>
        <mxCell id="ZSM1N3qtKj9A48DfGGsL-18" value="add-res5" style="rounded=0;whiteSpace=wrap;html=1;" vertex="1" parent="1">
          <mxGeometry x="670" y="630" width="60" height="20" as="geometry" />
        </mxCell>
        <mxCell id="ZSM1N3qtKj9A48DfGGsL-19" style="edgeStyle=orthogonalEdgeStyle;rounded=0;orthogonalLoop=1;jettySize=auto;html=1;entryX=0.5;entryY=1;entryDx=0;entryDy=0;dashed=1;dashPattern=1 1;fontFamily=Courier New;fontSize=7;fontColor=#0000FF;endArrow=blockThin;endFill=1;strokeWidth=1;fillColor=#dae8fc;strokeColor=#6c8ebf;" edge="1" parent="1" source="ZSM1N3qtKj9A48DfGGsL-20" target="ZSM1N3qtKj9A48DfGGsL-6">
          <mxGeometry relative="1" as="geometry">
            <Array as="points">
              <mxPoint x="400" y="505" />
            </Array>
          </mxGeometry>
        </mxCell>
        <mxCell id="ZSM1N3qtKj9A48DfGGsL-20" value="&lt;span style=&quot;font-size: 11px; background-color: rgb(255, 255, 255);&quot;&gt;teardown_hook: add_resource_clean(res3, clean_case3)&lt;/span&gt;" style="text;html=1;align=center;verticalAlign=middle;resizable=0;points=[];autosize=1;strokeColor=none;fillColor=none;fontSize=7;fontColor=#0000FF;" vertex="1" parent="1">
          <mxGeometry x="450" y="500" width="320" height="10" as="geometry" />
        </mxCell>
        <mxCell id="ZSM1N3qtKj9A48DfGGsL-21" style="edgeStyle=orthogonalEdgeStyle;rounded=0;orthogonalLoop=1;jettySize=auto;html=1;entryX=0.5;entryY=1;entryDx=0;entryDy=0;dashed=1;dashPattern=1 1;fontFamily=Courier New;fontSize=7;fontColor=#0000FF;endArrow=blockThin;endFill=1;strokeWidth=1;fillColor=#dae8fc;strokeColor=#6c8ebf;" edge="1" parent="1" source="ZSM1N3qtKj9A48DfGGsL-22" target="ZSM1N3qtKj9A48DfGGsL-25">
          <mxGeometry relative="1" as="geometry">
            <Array as="points">
              <mxPoint x="400" y="625" />
            </Array>
          </mxGeometry>
        </mxCell>
        <mxCell id="ZSM1N3qtKj9A48DfGGsL-22" value="&lt;span style=&quot;font-size: 6px; background-color: rgb(255, 255, 255);&quot;&gt;teardown_hook: add_resource_clean(res4&lt;/span&gt;&lt;span style=&quot;font-size: 11px; background-color: rgb(255, 255, 255);&quot;&gt;, clean_case4&lt;/span&gt;&lt;span style=&quot;font-size: 6px; background-color: rgb(255, 255, 255);&quot;&gt;)&lt;/span&gt;" style="text;html=1;align=center;verticalAlign=middle;resizable=0;points=[];autosize=1;strokeColor=none;fillColor=none;fontSize=6;fontColor=#0000FF;" vertex="1" parent="1">
          <mxGeometry x="450" y="620" width="320" height="10" as="geometry" />
        </mxCell>
        <mxCell id="ZSM1N3qtKj9A48DfGGsL-23" style="edgeStyle=orthogonalEdgeStyle;rounded=0;orthogonalLoop=1;jettySize=auto;html=1;entryX=0.5;entryY=1;entryDx=0;entryDy=0;dashed=1;dashPattern=1 1;fontFamily=Courier New;fontSize=7;fontColor=#0000FF;endArrow=blockThin;endFill=1;strokeWidth=1;fillColor=#dae8fc;strokeColor=#6c8ebf;" edge="1" parent="1" source="ZSM1N3qtKj9A48DfGGsL-24" target="ZSM1N3qtKj9A48DfGGsL-26">
          <mxGeometry relative="1" as="geometry">
            <Array as="points">
              <mxPoint x="400" y="655" />
            </Array>
          </mxGeometry>
        </mxCell>
        <mxCell id="ZSM1N3qtKj9A48DfGGsL-24" value="&lt;span style=&quot;font-size: 6px; background-color: rgb(255, 255, 255);&quot;&gt;teardown_hook: add_resource_clean(res5&lt;/span&gt;&lt;span style=&quot;font-size: 11px; background-color: rgb(255, 255, 255);&quot;&gt;, clean_case5&lt;/span&gt;&lt;span style=&quot;font-size: 6px; background-color: rgb(255, 255, 255);&quot;&gt;)&lt;/span&gt;" style="text;html=1;align=center;verticalAlign=middle;resizable=0;points=[];autosize=1;strokeColor=none;fillColor=none;fontSize=6;fontColor=#0000FF;" vertex="1" parent="1">
          <mxGeometry x="450" y="650" width="320" height="10" as="geometry" />
        </mxCell>
        <mxCell id="ZSM1N3qtKj9A48DfGGsL-25" value="res3" style="rounded=0;whiteSpace=wrap;html=1;" vertex="1" parent="1">
          <mxGeometry x="360" y="420" width="80" height="20" as="geometry" />
        </mxCell>
        <mxCell id="ZSM1N3qtKj9A48DfGGsL-26" value="res4" style="rounded=0;whiteSpace=wrap;html=1;" vertex="1" parent="1">
          <mxGeometry x="360" y="520" width="80" height="20" as="geometry" />
        </mxCell>
        <mxCell id="ZSM1N3qtKj9A48DfGGsL-27" value="res5" style="rounded=0;whiteSpace=wrap;html=1;" vertex="1" parent="1">
          <mxGeometry x="360" y="581" width="80" height="20" as="geometry" />
        </mxCell>
        <mxCell id="ZSM1N3qtKj9A48DfGGsL-28" style="edgeStyle=orthogonalEdgeStyle;rounded=0;orthogonalLoop=1;jettySize=auto;html=1;entryX=0.5;entryY=0;entryDx=0;entryDy=0;dashed=1;dashPattern=1 1;fontFamily=Courier New;fontSize=7;fontColor=#00CC00;endArrow=blockThin;endFill=1;strokeWidth=1;" edge="1" parent="1" source="ZSM1N3qtKj9A48DfGGsL-29" target="ZSM1N3qtKj9A48DfGGsL-7">
          <mxGeometry relative="1" as="geometry">
            <Array as="points">
              <mxPoint x="400" y="255" />
            </Array>
          </mxGeometry>
        </mxCell>
        <mxCell id="ZSM1N3qtKj9A48DfGGsL-29" value="&lt;span style=&quot;font-size: 11px; background-color: rgb(255, 255, 255);&quot;&gt;setup: ini res_stack&lt;/span&gt;" style="text;html=1;align=center;verticalAlign=middle;resizable=0;points=[];autosize=1;strokeColor=none;fillColor=none;fontSize=7;fontColor=#0000FF;" vertex="1" parent="1">
          <mxGeometry x="490" y="250" width="120" height="10" as="geometry" />
        </mxCell>
        <mxCell id="ZSM1N3qtKj9A48DfGGsL-30" style="edgeStyle=orthogonalEdgeStyle;rounded=0;orthogonalLoop=1;jettySize=auto;html=1;entryX=0.5;entryY=0;entryDx=0;entryDy=0;dashed=1;dashPattern=1 1;fontFamily=Courier New;fontSize=7;fontColor=#00CC00;endArrow=blockThin;endFill=1;strokeWidth=1;" edge="1" parent="1" source="ZSM1N3qtKj9A48DfGGsL-31" target="ZSM1N3qtKj9A48DfGGsL-9">
          <mxGeometry relative="1" as="geometry" />
        </mxCell>
        <mxCell id="ZSM1N3qtKj9A48DfGGsL-31" value="&lt;span style=&quot;font-size: 11px; background-color: rgb(255, 255, 255);&quot;&gt;run TestCase(s)&lt;/span&gt;" style="text;html=1;align=center;verticalAlign=middle;resizable=0;points=[];autosize=1;strokeColor=none;fillColor=none;fontSize=7;fontColor=#0000FF;" vertex="1" parent="1">
          <mxGeometry x="650" y="250" width="100" height="10" as="geometry" />
        </mxCell>
        <mxCell id="ZSM1N3qtKj9A48DfGGsL-32" style="edgeStyle=orthogonalEdgeStyle;rounded=0;orthogonalLoop=1;jettySize=auto;html=1;entryX=0.5;entryY=0;entryDx=0;entryDy=0;dashed=1;dashPattern=1 1;fontFamily=Courier New;fontSize=7;fontColor=#00CC00;endArrow=blockThin;endFill=1;strokeWidth=1;" edge="1" parent="1" source="ZSM1N3qtKj9A48DfGGsL-33" target="ZSM1N3qtKj9A48DfGGsL-53">
          <mxGeometry relative="1" as="geometry" />
        </mxCell>
        <mxCell id="ZSM1N3qtKj9A48DfGGsL-33" value="&lt;span style=&quot;font-size: 11px; background-color: rgb(255, 255, 255);&quot;&gt;teardown:&amp;nbsp;&lt;/span&gt;&lt;span style=&quot;font-size: 11px;&quot;&gt;exe_resource_clean()&lt;/span&gt;" style="text;html=1;align=center;verticalAlign=middle;resizable=0;points=[];autosize=1;strokeColor=none;fillColor=none;fontSize=7;fontColor=#0000FF;" vertex="1" parent="1">
          <mxGeometry x="790" y="250" width="190" height="10" as="geometry" />
        </mxCell>
        <mxCell id="ZSM1N3qtKj9A48DfGGsL-34" value="执行引擎 httprunner+pytest" style="rounded=0;whiteSpace=wrap;html=1;" vertex="1" parent="1">
          <mxGeometry x="690" y="200" width="200" height="30" as="geometry" />
        </mxCell>
        <mxCell id="ZSM1N3qtKj9A48DfGGsL-35" style="edgeStyle=orthogonalEdgeStyle;rounded=0;orthogonalLoop=1;jettySize=auto;html=1;dashed=1;dashPattern=1 1;fontFamily=Courier New;fontSize=7;fontColor=#00CC00;endArrow=blockThin;endFill=1;strokeWidth=1;" edge="1" parent="1" source="ZSM1N3qtKj9A48DfGGsL-36" target="ZSM1N3qtKj9A48DfGGsL-55">
          <mxGeometry relative="1" as="geometry" />
        </mxCell>
        <mxCell id="ZSM1N3qtKj9A48DfGGsL-36" value="make_clean_suite()" style="text;html=1;strokeColor=none;fillColor=none;align=center;verticalAlign=middle;whiteSpace=wrap;rounded=0;fontColor=#0000FF;" vertex="1" parent="1">
          <mxGeometry x="850" y="455" width="70" height="30" as="geometry" />
        </mxCell>
        <mxCell id="ZSM1N3qtKj9A48DfGGsL-37" style="edgeStyle=orthogonalEdgeStyle;rounded=0;orthogonalLoop=1;jettySize=auto;html=1;dashed=1;dashPattern=1 1;fontFamily=Courier New;fontSize=7;fontColor=#00CC00;endArrow=blockThin;endFill=1;strokeWidth=1;" edge="1" parent="1" source="ZSM1N3qtKj9A48DfGGsL-38" target="ZSM1N3qtKj9A48DfGGsL-51">
          <mxGeometry relative="1" as="geometry" />
        </mxCell>
        <mxCell id="ZSM1N3qtKj9A48DfGGsL-38" value="res1" style="rounded=0;whiteSpace=wrap;html=1;" vertex="1" parent="1">
          <mxGeometry x="920" y="340" width="80" height="20" as="geometry" />
        </mxCell>
        <mxCell id="ZSM1N3qtKj9A48DfGGsL-39" style="edgeStyle=orthogonalEdgeStyle;rounded=0;orthogonalLoop=1;jettySize=auto;html=1;dashed=1;dashPattern=1 1;fontFamily=Courier New;fontSize=7;fontColor=#00CC00;endArrow=blockThin;endFill=1;strokeWidth=1;" edge="1" parent="1" source="ZSM1N3qtKj9A48DfGGsL-40" target="ZSM1N3qtKj9A48DfGGsL-50">
          <mxGeometry relative="1" as="geometry" />
        </mxCell>
        <mxCell id="ZSM1N3qtKj9A48DfGGsL-40" value="res2" style="rounded=0;whiteSpace=wrap;html=1;" vertex="1" parent="1">
          <mxGeometry x="920" y="360" width="80" height="20" as="geometry" />
        </mxCell>
        <mxCell id="ZSM1N3qtKj9A48DfGGsL-41" style="edgeStyle=orthogonalEdgeStyle;rounded=0;orthogonalLoop=1;jettySize=auto;html=1;entryX=0.5;entryY=0;entryDx=0;entryDy=0;dashed=1;dashPattern=1 1;fontFamily=Courier New;fontSize=7;fontColor=#00CC00;endArrow=blockThin;endFill=1;strokeWidth=1;" edge="1" parent="1" source="ZSM1N3qtKj9A48DfGGsL-42" target="ZSM1N3qtKj9A48DfGGsL-49">
          <mxGeometry relative="1" as="geometry" />
        </mxCell>
        <mxCell id="ZSM1N3qtKj9A48DfGGsL-42" value="res3" style="rounded=0;whiteSpace=wrap;html=1;" vertex="1" parent="1">
          <mxGeometry x="920" y="380" width="80" height="20" as="geometry" />
        </mxCell>
        <mxCell id="ZSM1N3qtKj9A48DfGGsL-43" style="edgeStyle=orthogonalEdgeStyle;rounded=0;orthogonalLoop=1;jettySize=auto;html=1;entryX=0.5;entryY=0;entryDx=0;entryDy=0;dashed=1;dashPattern=1 1;fontFamily=Courier New;fontSize=7;fontColor=#00CC00;endArrow=blockThin;endFill=1;strokeWidth=1;" edge="1" parent="1" source="ZSM1N3qtKj9A48DfGGsL-44" target="ZSM1N3qtKj9A48DfGGsL-48">
          <mxGeometry relative="1" as="geometry" />
        </mxCell>
        <mxCell id="ZSM1N3qtKj9A48DfGGsL-44" value="res4" style="rounded=0;whiteSpace=wrap;html=1;" vertex="1" parent="1">
          <mxGeometry x="920" y="400" width="80" height="20" as="geometry" />
        </mxCell>
        <mxCell id="ZSM1N3qtKj9A48DfGGsL-45" style="edgeStyle=orthogonalEdgeStyle;rounded=0;orthogonalLoop=1;jettySize=auto;html=1;entryX=0.5;entryY=0;entryDx=0;entryDy=0;dashed=1;dashPattern=1 1;fontFamily=Courier New;fontSize=7;fontColor=#00CC00;endArrow=blockThin;endFill=1;strokeWidth=1;" edge="1" parent="1" source="ZSM1N3qtKj9A48DfGGsL-46" target="ZSM1N3qtKj9A48DfGGsL-47">
          <mxGeometry relative="1" as="geometry">
            <Array as="points">
              <mxPoint x="1040" y="430" />
            </Array>
          </mxGeometry>
        </mxCell>
        <mxCell id="ZSM1N3qtKj9A48DfGGsL-46" value="res5" style="rounded=0;whiteSpace=wrap;html=1;" vertex="1" parent="1">
          <mxGeometry x="920" y="420" width="80" height="20" as="geometry" />
        </mxCell>
        <mxCell id="ZSM1N3qtKj9A48DfGGsL-47" value="clean_case1" style="rounded=0;whiteSpace=wrap;html=1;" vertex="1" parent="1">
          <mxGeometry x="1000" y="460" width="80" height="20" as="geometry" />
        </mxCell>
        <mxCell id="ZSM1N3qtKj9A48DfGGsL-48" value="clean_case2" style="rounded=0;whiteSpace=wrap;html=1;" vertex="1" parent="1">
          <mxGeometry x="1090" y="460" width="80" height="20" as="geometry" />
        </mxCell>
        <mxCell id="ZSM1N3qtKj9A48DfGGsL-49" value="clean_case3" style="rounded=0;whiteSpace=wrap;html=1;" vertex="1" parent="1">
          <mxGeometry x="1180" y="460" width="80" height="20" as="geometry" />
        </mxCell>
        <mxCell id="ZSM1N3qtKj9A48DfGGsL-50" value="clean_case4" style="rounded=0;whiteSpace=wrap;html=1;" vertex="1" parent="1">
          <mxGeometry x="1270" y="460" width="80" height="20" as="geometry" />
        </mxCell>
        <mxCell id="ZSM1N3qtKj9A48DfGGsL-51" value="clean_case5" style="rounded=0;whiteSpace=wrap;html=1;" vertex="1" parent="1">
          <mxGeometry x="1360" y="460" width="80" height="20" as="geometry" />
        </mxCell>
        <mxCell id="ZSM1N3qtKj9A48DfGGsL-52" style="edgeStyle=orthogonalEdgeStyle;rounded=0;orthogonalLoop=1;jettySize=auto;html=1;dashed=1;dashPattern=1 1;fontFamily=Courier New;fontSize=7;fontColor=#00CC00;endArrow=blockThin;endFill=1;strokeWidth=1;" edge="1" parent="1" source="ZSM1N3qtKj9A48DfGGsL-53" target="ZSM1N3qtKj9A48DfGGsL-36">
          <mxGeometry relative="1" as="geometry" />
        </mxCell>
        <mxCell id="ZSM1N3qtKj9A48DfGGsL-53" value="make_clean_cases()" style="text;html=1;strokeColor=none;fillColor=none;align=center;verticalAlign=middle;whiteSpace=wrap;rounded=0;fontColor=#0000FF;" vertex="1" parent="1">
          <mxGeometry x="850" y="310" width="70" height="30" as="geometry" />
        </mxCell>
        <mxCell id="ZSM1N3qtKj9A48DfGGsL-54" style="edgeStyle=orthogonalEdgeStyle;rounded=0;orthogonalLoop=1;jettySize=auto;html=1;entryX=0.5;entryY=0;entryDx=0;entryDy=0;dashed=1;dashPattern=1 1;fontFamily=Courier New;fontSize=7;fontColor=#00CC00;endArrow=blockThin;endFill=1;strokeWidth=1;fillColor=#f8cecc;strokeColor=#b85450;" edge="1" parent="1" source="ZSM1N3qtKj9A48DfGGsL-55" target="ZSM1N3qtKj9A48DfGGsL-57">
          <mxGeometry relative="1" as="geometry">
            <Array as="points">
              <mxPoint x="1220" y="521" />
            </Array>
          </mxGeometry>
        </mxCell>
        <mxCell id="ZSM1N3qtKj9A48DfGGsL-55" value="run_clean_cycle()" style="text;html=1;strokeColor=none;fillColor=none;align=center;verticalAlign=middle;whiteSpace=wrap;rounded=0;fontColor=#0000FF;" vertex="1" parent="1">
          <mxGeometry x="850" y="515" width="70" height="30" as="geometry" />
        </mxCell>
        <mxCell id="ZSM1N3qtKj9A48DfGGsL-56" style="edgeStyle=orthogonalEdgeStyle;rounded=0;orthogonalLoop=1;jettySize=auto;html=1;entryX=0.5;entryY=0;entryDx=0;entryDy=0;dashed=1;dashPattern=1 1;fontFamily=Courier New;fontSize=7;fontColor=#00CC00;endArrow=blockThin;endFill=1;strokeWidth=1;fillColor=#f8cecc;strokeColor=#b85450;" edge="1" parent="1" source="ZSM1N3qtKj9A48DfGGsL-57" target="ZSM1N3qtKj9A48DfGGsL-64">
          <mxGeometry relative="1" as="geometry" />
        </mxCell>
        <mxCell id="ZSM1N3qtKj9A48DfGGsL-57" value="round_1" style="rounded=0;whiteSpace=wrap;html=1;dashed=1;verticalAlign=bottom;" vertex="1" parent="1">
          <mxGeometry x="960" y="541" width="520" height="50" as="geometry" />
        </mxCell>
        <mxCell id="ZSM1N3qtKj9A48DfGGsL-58" value="clean_case1" style="rounded=0;whiteSpace=wrap;html=1;fillColor=#dae8fc;strokeColor=#6c8ebf;" vertex="1" parent="1">
          <mxGeometry x="1000" y="551" width="80" height="20" as="geometry" />
        </mxCell>
        <mxCell id="ZSM1N3qtKj9A48DfGGsL-59" value="clean_case2" style="rounded=0;whiteSpace=wrap;html=1;fillColor=#dae8fc;strokeColor=#6c8ebf;" vertex="1" parent="1">
          <mxGeometry x="1090" y="551" width="80" height="20" as="geometry" />
        </mxCell>
        <mxCell id="ZSM1N3qtKj9A48DfGGsL-60" value="clean_case3" style="rounded=0;whiteSpace=wrap;html=1;fillColor=#f8cecc;strokeColor=#b85450;" vertex="1" parent="1">
          <mxGeometry x="1180" y="551" width="80" height="20" as="geometry" />
        </mxCell>
        <mxCell id="ZSM1N3qtKj9A48DfGGsL-61" value="clean_case4" style="rounded=0;whiteSpace=wrap;html=1;fillColor=#f8cecc;strokeColor=#b85450;" vertex="1" parent="1">
          <mxGeometry x="1270" y="551" width="80" height="20" as="geometry" />
        </mxCell>
        <mxCell id="ZSM1N3qtKj9A48DfGGsL-62" value="clean_case5" style="rounded=0;whiteSpace=wrap;html=1;fillColor=#dae8fc;strokeColor=#6c8ebf;" vertex="1" parent="1">
          <mxGeometry x="1360" y="551" width="80" height="20" as="geometry" />
        </mxCell>
        <mxCell id="ZSM1N3qtKj9A48DfGGsL-63" style="edgeStyle=orthogonalEdgeStyle;rounded=0;orthogonalLoop=1;jettySize=auto;html=1;entryX=0.5;entryY=1;entryDx=0;entryDy=0;dashed=1;dashPattern=1 1;fontFamily=Courier New;fontSize=7;fontColor=#00CC00;endArrow=blockThin;endFill=1;strokeWidth=1;exitX=0.5;exitY=1;exitDx=0;exitDy=0;fillColor=#f8cecc;strokeColor=#b85450;" edge="1" parent="1" source="ZSM1N3qtKj9A48DfGGsL-64" target="ZSM1N3qtKj9A48DfGGsL-55">
          <mxGeometry relative="1" as="geometry">
            <mxPoint x="960" y="720" as="sourcePoint" />
            <Array as="points">
              <mxPoint x="1220" y="700" />
              <mxPoint x="885" y="700" />
            </Array>
          </mxGeometry>
        </mxCell>
        <mxCell id="ZSM1N3qtKj9A48DfGGsL-64" value="round_2" style="rounded=0;whiteSpace=wrap;html=1;dashed=1;verticalAlign=bottom;" vertex="1" parent="1">
          <mxGeometry x="960" y="621" width="520" height="50" as="geometry" />
        </mxCell>
        <mxCell id="ZSM1N3qtKj9A48DfGGsL-65" value="clean_case1" style="rounded=0;whiteSpace=wrap;html=1;fillColor=#dae8fc;strokeColor=#6c8ebf;" vertex="1" parent="1">
          <mxGeometry x="1000" y="631" width="80" height="20" as="geometry" />
        </mxCell>
        <mxCell id="ZSM1N3qtKj9A48DfGGsL-66" value="clean_case2" style="rounded=0;whiteSpace=wrap;html=1;fillColor=#dae8fc;strokeColor=#6c8ebf;" vertex="1" parent="1">
          <mxGeometry x="1090" y="631" width="80" height="20" as="geometry" />
        </mxCell>
        <mxCell id="ZSM1N3qtKj9A48DfGGsL-67" value="clean_case3" style="rounded=0;whiteSpace=wrap;html=1;fillColor=#dae8fc;strokeColor=#6c8ebf;" vertex="1" parent="1">
          <mxGeometry x="1180" y="631" width="80" height="20" as="geometry" />
        </mxCell>
        <mxCell id="ZSM1N3qtKj9A48DfGGsL-68" value="clean_case4" style="rounded=0;whiteSpace=wrap;html=1;fillColor=#dae8fc;strokeColor=#6c8ebf;" vertex="1" parent="1">
          <mxGeometry x="1270" y="631" width="80" height="20" as="geometry" />
        </mxCell>
        <mxCell id="ZSM1N3qtKj9A48DfGGsL-69" value="clean_case5" style="rounded=0;whiteSpace=wrap;html=1;fillColor=#dae8fc;strokeColor=#6c8ebf;" vertex="1" parent="1">
          <mxGeometry x="1360" y="631" width="80" height="20" as="geometry" />
        </mxCell>
        <mxCell id="ZSM1N3qtKj9A48DfGGsL-70" value="" style="endArrow=classic;html=1;rounded=0;fontFamily=Courier New;fontSize=7;fontColor=#0000FF;strokeWidth=3;fillColor=#dae8fc;strokeColor=#0000FF;" edge="1" parent="1">
          <mxGeometry width="50" height="50" relative="1" as="geometry">
            <mxPoint x="340" y="340.99999999999955" as="sourcePoint" />
            <mxPoint x="340" y="600" as="targetPoint" />
          </mxGeometry>
        </mxCell>
        <mxCell id="ZSM1N3qtKj9A48DfGGsL-71" value="入栈" style="edgeLabel;html=1;align=center;verticalAlign=middle;resizable=0;points=[];fontSize=7;fontFamily=Courier New;fontColor=#0000FF;" vertex="1" connectable="0" parent="ZSM1N3qtKj9A48DfGGsL-70">
          <mxGeometry x="0.0403" relative="1" as="geometry">
            <mxPoint as="offset" />
          </mxGeometry>
        </mxCell>
        <mxCell id="ZSM1N3qtKj9A48DfGGsL-72" value="" style="endArrow=classic;html=1;rounded=0;fontFamily=Courier New;fontSize=7;fontColor=#0000FF;strokeWidth=3;fillColor=#dae8fc;strokeColor=#0000FF;" edge="1" parent="1">
          <mxGeometry width="50" height="50" relative="1" as="geometry">
            <mxPoint x="1010" y="440" as="sourcePoint" />
            <mxPoint x="1010" y="340" as="targetPoint" />
          </mxGeometry>
        </mxCell>
        <mxCell id="ZSM1N3qtKj9A48DfGGsL-73" value="出栈" style="edgeLabel;html=1;align=center;verticalAlign=middle;resizable=0;points=[];fontSize=7;fontFamily=Courier New;fontColor=#0000FF;" vertex="1" connectable="0" parent="ZSM1N3qtKj9A48DfGGsL-72">
          <mxGeometry x="-0.1714" relative="1" as="geometry">
            <mxPoint as="offset" />
          </mxGeometry>
        </mxCell>
      </root>
    </mxGraphModel>
  </diagram>
</mxfile>
